<?xml version="1.0" encoding="utf-8"?>
<!-- Generator: Adobe Illustrator 25.2.0, SVG Export Plug-In . SVG Version: 6.00 Build 0)  -->
<svg version="1.1" id="Layer_1" xmlns="http://www.w3.org/2000/svg" xmlns:xlink="http://www.w3.org/1999/xlink" x="0px" y="0px"
	 viewBox="0 0 180 180" style="enable-background:new 0 0 180 180;" xml:space="preserve">
<style type="text/css">
	.st0{fill:#30469A;}
	.st1{fill:#FFFFFF;}
</style>
<g>
	<g>
		<path class="st0" d="M0.3-0.09h13.63v72.31H0.3V-0.09z M7.16,59.09h17.36c4.48,0,7.94-1.08,10.39-3.23
			c2.45-2.15,3.68-5.2,3.68-9.15V25.42c0-3.95-1.23-7-3.68-9.15c-2.45-2.15-5.92-3.23-10.39-3.23H7.16V-0.09h17.06
			c6.03,0,11.18,1.01,15.44,3.03c4.26,2.02,7.5,4.97,9.72,8.85c2.22,3.88,3.33,8.55,3.33,14.02v20.49c0,5.21-1.07,9.75-3.21,13.63
			c-2.14,3.88-5.35,6.9-9.62,9.05c-4.28,2.16-9.52,3.23-15.71,3.23H7.16V59.09z"/>
		<path class="st0" d="M67.14-0.09h13.63v72.31H67.14V-0.09z M73.35,31.04h23.12c1.62,0,3.06-0.37,4.3-1.12
			c1.24-0.75,2.21-1.8,2.91-3.16c0.7-1.36,1.04-2.92,1.04-4.67c0-1.79-0.34-3.37-1.02-4.75c-0.68-1.38-1.64-2.44-2.88-3.18
			c-1.24-0.75-2.69-1.12-4.35-1.12H73.35V-0.09h22.78c4.51,0,8.48,0.92,11.91,2.76c3.43,1.84,6.09,4.43,7.98,7.78
			c1.89,3.35,2.83,7.23,2.83,11.64c0,4.41-0.95,8.28-2.83,11.61s-4.55,5.91-7.98,7.73c-3.43,1.82-7.4,2.74-11.91,2.74H73.35V31.04z"
			/>
		<path class="st0" d="M130.54-0.09h13.63v72.31h-13.63V-0.09z M136.76,31.04h23.12c1.62,0,3.06-0.37,4.3-1.12
			c1.24-0.75,2.21-1.8,2.91-3.16c0.7-1.36,1.04-2.92,1.04-4.67c0-1.79-0.34-3.37-1.02-4.75c-0.68-1.38-1.64-2.44-2.88-3.18
			c-1.24-0.75-2.69-1.12-4.35-1.12h-23.12V-0.09h22.78c4.51,0,8.48,0.92,11.91,2.76c3.43,1.84,6.09,4.43,7.98,7.78
			c1.89,3.35,2.83,7.23,2.83,11.64c0,4.41-0.95,8.28-2.83,11.61s-4.55,5.91-7.98,7.73c-3.43,1.82-7.4,2.74-11.91,2.74h-22.78V31.04z
			"/>
	</g>
</g>
<g>
	<g>
		<g>
			<path class="st0" d="M-0.25,111.43h6.98v70.72h-6.98V111.43z M12.05,160.43c-2.75-1.34-4.75-3.54-6.01-6.61l0.68-10.51
				c0,2.2,0.52,4.3,1.55,6.32c1.03,2.02,2.52,3.66,4.46,4.92s4.2,1.89,6.78,1.89c4.2,0,7.44-1.25,9.74-3.75
				c2.29-2.5,3.44-6.01,3.44-10.54v-10.9c0-4.62-1.15-8.19-3.44-10.73c-2.29-2.54-5.54-3.8-9.74-3.8c-2.58,0-4.84,0.62-6.78,1.87
				s-3.42,2.85-4.46,4.82c-1.03,1.97-1.55,4.04-1.55,6.2l-1.02-9.69c1.74-3.26,4.06-5.61,6.95-7.05s6.26-2.16,10.1-2.16
				c3.55,0,6.6,0.8,9.13,2.4c2.53,1.6,4.46,3.93,5.79,7c1.32,3.07,1.99,6.77,1.99,11.09v10.95c0,4.26-0.68,7.91-2.03,10.95
				c-1.36,3.04-3.34,5.35-5.96,6.95s-5.75,2.4-9.4,2.4C18.21,162.44,14.8,161.76,12.05,160.43z"/>
			<path class="st0" d="M55.17,91.28h6.98v6.98h-6.98V91.28z M55.17,111.43h6.98v50.28h-6.98V111.43z"/>
			<path class="st0" d="M85.59,148.49c0,2.13,0.52,3.79,1.57,4.96c1.05,1.18,2.51,1.77,4.38,1.77h4.65v6.49h-5.81
				c-3.75,0-6.64-1.16-8.69-3.49c-2.05-2.33-3.08-5.6-3.08-9.83V91.28h6.98V148.49z"/>
			<path class="st0" d="M115.42,159.87c-3.1-1.71-5.47-4.21-7.1-7.48s-2.45-7.23-2.45-11.84v-8.19c0-4.55,0.82-8.45,2.45-11.7
				c1.63-3.25,4-5.72,7.1-7.41c3.1-1.7,6.83-2.54,11.19-2.54s8.09,0.85,11.19,2.54c3.1,1.7,5.46,4.17,7.1,7.41
				c1.63,3.25,2.45,7.15,2.45,11.7v8.33c0,4.59-0.82,8.5-2.45,11.75c-1.63,3.25-4,5.72-7.1,7.44c-3.1,1.71-6.83,2.57-11.19,2.57
				S118.52,161.58,115.42,159.87z M136.76,151.95c2.41-2.66,3.61-6.42,3.61-11.26v-8.33c0-4.81-1.2-8.54-3.61-11.19
				c-2.41-2.65-5.8-3.97-10.2-3.97c-4.36,0-7.73,1.32-10.12,3.97c-2.39,2.65-3.58,6.38-3.58,11.19v8.33c0,4.84,1.19,8.6,3.58,11.26
				s5.76,4,10.12,4C130.96,155.94,134.36,154.61,136.76,151.95z"/>
			<path class="st0" d="M157.52,111.43h22.67v6.01h-22.67V111.43z M165.53,158.58c-1.89-2.24-2.83-5.56-2.83-9.96V96.8h6.97v51.93
				c0,2.16,0.48,3.83,1.45,4.99c0.97,1.16,2.41,1.74,4.31,1.74h4.75v6.49h-5.72C170.4,161.95,167.42,160.83,165.53,158.58z"/>
		</g>
	</g>
</g>
</svg>
